<svg width="64" height="65" viewBox="0 0 64 65" fill="none" xmlns="http://www.w3.org/2000/svg">
<path d="M58.8625 3.75L55.9875 4.71125L55.975 6.29375L58.2 8.52L59.7875 8.5075L60.75 5.6275L58.8625 3.75ZM54.8 8.375L26.425 34.6875L29.825 38.0625L56.125 9.69625L54.8 8.375ZM49.85 5.95875L48.2125 7.5875L50.1625 9.525L51.85 7.95875L49.85 5.95875ZM56.5375 12.6575L54.975 14.35L56.9125 16.275L58.55 14.65L56.5375 12.6575ZM46.5875 9.2175L44.9625 10.845L46.7875 12.6713L48.475 11.0988L46.5875 9.2175ZM53.4 16.025L51.8375 17.725L53.65 19.5375L55.2875 17.9L53.4 16.025ZM37.9 20.925C34.3125 18.7375 28.9 17.75 23.3625 26.9L22.4625 26.725L21.55 28.35C22.025 28.475 23.2375 29.375 23.1 29.8625C22.6625 31.275 17.075 37.9 14.275 35.425C13.9125 35.1 13.55 34.7125 13.275 34.225L11.4813 35.2125C11.635 36.4625 11.2375 36.9375 10.6838 37.1875C0.311891 41.7625 2.66502 47.0125 6.55752 53.05L6.94627 52.675C9.70752 49.9 12.3988 45.85 14.7875 42.3375L15.55 41.175L17.175 42.8L18.4375 41.5375L17.0875 40.175L19.4375 39.2625L20.075 39.9125L24.2375 35.7375C23.875 35.3625 23.5 34.9875 23.125 34.625L37.9 20.925ZM43.5875 26.6125L29.875 41.375L28.7625 40.2625L24.6 44.425L25.225 45.0625L24.3375 47.425L22.975 46.05L21.7125 47.325L23.3125 48.9375L22.1625 49.725C18.7125 52.0875 14.5875 54.8 11.8363 57.5625L11.4438 57.9375C17.5 61.8375 22.75 64.1875 27.325 53.8125C27.575 53.2625 28.0375 52.8625 29.3 53.0125L30.275 51.225C29.8 50.9375 29.4 50.6 29.075 50.225C26.6 47.425 33.225 41.825 34.6375 41.3875C35.125 41.25 36.0125 42.4625 36.15 42.9375L37.775 42.05L37.6 41.15C46.75 35.6125 45.775 30.1875 43.5875 26.6125ZM25.8625 37.375L21.7125 41.5375L22.975 42.8L27.1375 38.6375L25.8625 37.375ZM20.075 43.1625L18.8 44.425L20.075 45.6875L21.3375 44.425L20.075 43.1625ZM15.9 44.7875C13.85 47.8125 11.5713 51.1625 9.04502 53.7875L9.41627 55.075L10.7113 55.45C13.35 52.9375 16.7125 50.65 19.725 48.6L15.9 44.7875Z" fill="#6F4A30"/>
</svg>
